<svg xmlns="http://www.w3.org/2000/svg" width="48" height="48" fill="none"><path fill="#159B8E" d="M33.39 33.575a5.9 5.9 0 0 1 .935-3.185c-.35-.265-.635-.475-.815-.61 0 0-1.435 3.27-3.21 3.27s-3.22-3.27-3.22-3.27h-.01c-.915.675-4.7 3.365-5.515 6.005-.4 1.295-.605 5.035.805 5.645.125.055.39.07.39.07h15.065s.265-.015.39-.07c.575-.245.875-1.015 1.01-1.925-3.225-.06-5.83-2.695-5.83-5.93h.005Z"/><path stroke="#252F3D" stroke-linecap="round" stroke-linejoin="round" stroke-width="2" d="M39.325 38.75a5.175 5.175 0 1 0 0-10.35 5.175 5.175 0 0 0 0 10.35Zm-9.04-24.6c4.295 0 6.265 3.66 5.94 6.86-.405 3.995 2.305 6.77-3.61 6.77m-2.33-13.63c-4.295 0-6.265 3.66-5.94 6.86.405 3.995-2.305 6.77 3.61 6.77M13.25 27.5s1.06 3.195 3.055 3.195S19.25 27.5 19.25 27.5m-2.905 3.195v10.08"/><path stroke="#252F3D" stroke-linecap="round" stroke-linejoin="round" stroke-width="2" d="M22.25 28.75c-2.09-1.635-3.85-1.82-3.85-2.95 0-.7.18-1.32.595-1.85.86-1.1 2.265-1.91 2.265-6.25 0-3.485-1.62-3.72-3.005-4.45-2 2-4.55 4.2-7.095 4.13-.005.17-.01.34-.01.52 0 4.34 1.405 5.15 2.265 6.25.415.53.595 1.155.595 1.85 0 1.41-7.08 4.945-8.04 8.055-.47 1.52-.71 5.925.95 6.635.145.065.46.08.46.08h15.885"/><path fill="#159B8E" d="M18.615 38.025a.525.525 0 1 0 0-1.05.525.525 0 0 0 0 1.05Zm0-2.615a.525.525 0 1 0 0-1.05.525.525 0 0 0 0 1.05Z"/><path stroke="#252F3D" stroke-linecap="round" stroke-linejoin="round" stroke-width="2" d="M33.815 30.75c-.73-.545-1.575-1.415-1.63-1.71-.09-.485.13-.94.42-1.315.61-.78 1.605-1.355 1.605-4.435 0-.405-.025-.77-.075-1.1a5.842 5.842 0 0 1-3.255-2.69 5.8 5.8 0 0 1-4.48 2.95c-.025.26-.04.54-.04.84 0 3.08.995 3.655 1.605 4.435.295.375.515.83.42 1.315-.037.197-.298.477-.785.84l-.52.245c-1.28.6-2.47 1.4-3.46 2.41-.83.845-1.655 1.935-2.06 3.255-.4 1.295-.605 4.355.805 4.96H37.82s1.435 0 1.51-2m-.005-6.85v3.35m-1.67-1.675H41M11.25 20.75c-1.495-1.375-2.5-2.67-2.5-5 0-4.14 3.055-7.02 6.75-7.5 1.135-.15 2.75 0 4.27 1.63 0 0 1.43-.77 2.48 1.87 1.725 3.65-.5 6-1 7"/></svg>